<?xml version="1.0" encoding="UTF-8" standalone="no"?>
<!DOCTYPE svg PUBLIC "-//W3C//DTD SVG 1.1//EN"
 "http://www.w3.org/Graphics/SVG/1.1/DTD/svg11.dtd">
<!-- Generated by graphviz version 2.50.0 (0)
 -->
<!-- Title: model Pages: 1 -->
<svg width="195pt" height="654pt"
 viewBox="0.00 0.00 195.00 654.00" xmlns="http://www.w3.org/2000/svg" xmlns:xlink="http://www.w3.org/1999/xlink">
<g id="graph0" class="graph" transform="scale(1 1) rotate(0) translate(4 650)">
<title>model</title>
<polygon fill="white" stroke="transparent" points="-4,4 -4,-650 191,-650 191,4 -4,4"/>
<!-- 0 -->
<g id="node1" class="node">
<title>0</title>
<polygon fill="lightyellow" stroke="transparent" points="163.5,-646 23.5,-646 23.5,-614 163.5,-614 163.5,-646"/>
<polygon fill="none" stroke="black" points="23.5,-614 23.5,-646 85.5,-646 85.5,-614 23.5,-614"/>
<text text-anchor="start" x="28.5" y="-633" font-family="Linux libertine" font-size="10.00">input&#45;tensor</text>
<text text-anchor="start" x="37.5" y="-622" font-family="Linux libertine" font-size="10.00">depth:0</text>
<polygon fill="none" stroke="black" points="85.5,-614 85.5,-646 163.5,-646 163.5,-614 85.5,-614"/>
<text text-anchor="start" x="90.5" y="-627.5" font-family="Linux libertine" font-size="10.00">(4, 1, 197, 394)</text>
</g>
<!-- 1 -->
<g id="node2" class="node">
<title>1</title>
<polygon fill="#c1ffc1" stroke="transparent" points="180.5,-578 6.5,-578 6.5,-536 180.5,-536 180.5,-578"/>
<polygon fill="none" stroke="black" points="6.5,-536 6.5,-578 50.5,-578 50.5,-536 6.5,-536"/>
<text text-anchor="start" x="12" y="-560" font-family="Linux libertine" font-size="10.00">Conv2d</text>
<text text-anchor="start" x="11.5" y="-549" font-family="Linux libertine" font-size="10.00">depth:1</text>
<polygon fill="none" stroke="black" points="50.5,-557 50.5,-578 94.5,-578 94.5,-557 50.5,-557"/>
<text text-anchor="start" x="60" y="-565" font-family="Linux libertine" font-size="10.00">input:</text>
<polygon fill="none" stroke="black" points="94.5,-557 94.5,-578 180.5,-578 180.5,-557 94.5,-557"/>
<text text-anchor="start" x="102" y="-565" font-family="Linux libertine" font-size="10.00">(4, 1, 197, 394) </text>
<polygon fill="none" stroke="black" points="50.5,-536 50.5,-557 94.5,-557 94.5,-536 50.5,-536"/>
<text text-anchor="start" x="55.5" y="-544" font-family="Linux libertine" font-size="10.00">output: </text>
<polygon fill="none" stroke="black" points="94.5,-536 94.5,-557 180.5,-557 180.5,-536 94.5,-536"/>
<text text-anchor="start" x="99.5" y="-544" font-family="Linux libertine" font-size="10.00">(4, 16, 197, 394) </text>
</g>
<!-- 0&#45;&gt;1 -->
<g id="edge1" class="edge">
<title>0&#45;&gt;1</title>
<path fill="none" stroke="black" d="M93.5,-613.94C93.5,-606.45 93.5,-597.12 93.5,-588.24"/>
<polygon fill="black" stroke="black" points="97,-588.16 93.5,-578.16 90,-588.16 97,-588.16"/>
</g>
<!-- 2 -->
<g id="node3" class="node">
<title>2</title>
<polygon fill="#c1ffc1" stroke="transparent" points="180.5,-500 6.5,-500 6.5,-458 180.5,-458 180.5,-500"/>
<polygon fill="none" stroke="black" points="6.5,-458 6.5,-500 50.5,-500 50.5,-458 6.5,-458"/>
<text text-anchor="start" x="16.5" y="-482" font-family="Linux libertine" font-size="10.00">ReLU</text>
<text text-anchor="start" x="11.5" y="-471" font-family="Linux libertine" font-size="10.00">depth:1</text>
<polygon fill="none" stroke="black" points="50.5,-479 50.5,-500 94.5,-500 94.5,-479 50.5,-479"/>
<text text-anchor="start" x="60" y="-487" font-family="Linux libertine" font-size="10.00">input:</text>
<polygon fill="none" stroke="black" points="94.5,-479 94.5,-500 180.5,-500 180.5,-479 94.5,-479"/>
<text text-anchor="start" x="99.5" y="-487" font-family="Linux libertine" font-size="10.00">(4, 16, 197, 394) </text>
<polygon fill="none" stroke="black" points="50.5,-458 50.5,-479 94.5,-479 94.5,-458 50.5,-458"/>
<text text-anchor="start" x="55.5" y="-466" font-family="Linux libertine" font-size="10.00">output: </text>
<polygon fill="none" stroke="black" points="94.5,-458 94.5,-479 180.5,-479 180.5,-458 94.5,-458"/>
<text text-anchor="start" x="99.5" y="-466" font-family="Linux libertine" font-size="10.00">(4, 16, 197, 394) </text>
</g>
<!-- 1&#45;&gt;2 -->
<g id="edge2" class="edge">
<title>1&#45;&gt;2</title>
<path fill="none" stroke="black" d="M93.5,-535.63C93.5,-527.82 93.5,-518.73 93.5,-510.18"/>
<polygon fill="black" stroke="black" points="97,-510.16 93.5,-500.16 90,-510.16 97,-510.16"/>
</g>
<!-- 3 -->
<g id="node4" class="node">
<title>3</title>
<polygon fill="#c1ffc1" stroke="transparent" points="187,-422 0,-422 0,-380 187,-380 187,-422"/>
<polygon fill="none" stroke="black" points="0.5,-380 0.5,-422 57.5,-422 57.5,-380 0.5,-380"/>
<text text-anchor="start" x="5.5" y="-404" font-family="Linux libertine" font-size="10.00">MaxPool2d</text>
<text text-anchor="start" x="12" y="-393" font-family="Linux libertine" font-size="10.00">depth:1</text>
<polygon fill="none" stroke="black" points="57.5,-401 57.5,-422 101.5,-422 101.5,-401 57.5,-401"/>
<text text-anchor="start" x="67" y="-409" font-family="Linux libertine" font-size="10.00">input:</text>
<polygon fill="none" stroke="black" points="101.5,-401 101.5,-422 187.5,-422 187.5,-401 101.5,-401"/>
<text text-anchor="start" x="106.5" y="-409" font-family="Linux libertine" font-size="10.00">(4, 16, 197, 394) </text>
<polygon fill="none" stroke="black" points="57.5,-380 57.5,-401 101.5,-401 101.5,-380 57.5,-380"/>
<text text-anchor="start" x="62.5" y="-388" font-family="Linux libertine" font-size="10.00">output: </text>
<polygon fill="none" stroke="black" points="101.5,-380 101.5,-401 187.5,-401 187.5,-380 101.5,-380"/>
<text text-anchor="start" x="109" y="-388" font-family="Linux libertine" font-size="10.00">(4, 16, 98, 197) </text>
</g>
<!-- 2&#45;&gt;3 -->
<g id="edge3" class="edge">
<title>2&#45;&gt;3</title>
<path fill="none" stroke="black" d="M93.5,-457.63C93.5,-449.82 93.5,-440.73 93.5,-432.18"/>
<polygon fill="black" stroke="black" points="97,-432.16 93.5,-422.16 90,-432.16 97,-432.16"/>
</g>
<!-- 4 -->
<g id="node5" class="node">
<title>4</title>
<polygon fill="aliceblue" stroke="transparent" points="178,-344 9,-344 9,-302 178,-302 178,-344"/>
<polygon fill="none" stroke="black" points="9.5,-302 9.5,-344 53.5,-344 53.5,-302 9.5,-302"/>
<text text-anchor="start" x="21" y="-326" font-family="Linux libertine" font-size="10.00">view</text>
<text text-anchor="start" x="14.5" y="-315" font-family="Linux libertine" font-size="10.00">depth:1</text>
<polygon fill="none" stroke="black" points="53.5,-323 53.5,-344 97.5,-344 97.5,-323 53.5,-323"/>
<text text-anchor="start" x="63" y="-331" font-family="Linux libertine" font-size="10.00">input:</text>
<polygon fill="none" stroke="black" points="97.5,-323 97.5,-344 178.5,-344 178.5,-323 97.5,-323"/>
<text text-anchor="start" x="102.5" y="-331" font-family="Linux libertine" font-size="10.00">(4, 16, 98, 197) </text>
<polygon fill="none" stroke="black" points="53.5,-302 53.5,-323 97.5,-323 97.5,-302 53.5,-302"/>
<text text-anchor="start" x="58.5" y="-310" font-family="Linux libertine" font-size="10.00">output: </text>
<polygon fill="none" stroke="black" points="97.5,-302 97.5,-323 178.5,-323 178.5,-302 97.5,-302"/>
<text text-anchor="start" x="111" y="-310" font-family="Linux libertine" font-size="10.00">(4, 308896) </text>
</g>
<!-- 3&#45;&gt;4 -->
<g id="edge4" class="edge">
<title>3&#45;&gt;4</title>
<path fill="none" stroke="black" d="M93.5,-379.63C93.5,-371.82 93.5,-362.73 93.5,-354.18"/>
<polygon fill="black" stroke="black" points="97,-354.16 93.5,-344.16 90,-354.16 97,-354.16"/>
</g>
<!-- 5 -->
<g id="node6" class="node">
<title>5</title>
<polygon fill="#c1ffc1" stroke="transparent" points="169.5,-266 17.5,-266 17.5,-224 169.5,-224 169.5,-266"/>
<polygon fill="none" stroke="black" points="17.5,-224 17.5,-266 61.5,-266 61.5,-224 17.5,-224"/>
<text text-anchor="start" x="25.5" y="-248" font-family="Linux libertine" font-size="10.00">Linear</text>
<text text-anchor="start" x="22.5" y="-237" font-family="Linux libertine" font-size="10.00">depth:1</text>
<polygon fill="none" stroke="black" points="61.5,-245 61.5,-266 105.5,-266 105.5,-245 61.5,-245"/>
<text text-anchor="start" x="71" y="-253" font-family="Linux libertine" font-size="10.00">input:</text>
<polygon fill="none" stroke="black" points="105.5,-245 105.5,-266 169.5,-266 169.5,-245 105.5,-245"/>
<text text-anchor="start" x="110.5" y="-253" font-family="Linux libertine" font-size="10.00">(4, 308896) </text>
<polygon fill="none" stroke="black" points="61.5,-224 61.5,-245 105.5,-245 105.5,-224 61.5,-224"/>
<text text-anchor="start" x="66.5" y="-232" font-family="Linux libertine" font-size="10.00">output: </text>
<polygon fill="none" stroke="black" points="105.5,-224 105.5,-245 169.5,-245 169.5,-224 105.5,-224"/>
<text text-anchor="start" x="118.5" y="-232" font-family="Linux libertine" font-size="10.00">(4, 256) </text>
</g>
<!-- 4&#45;&gt;5 -->
<g id="edge5" class="edge">
<title>4&#45;&gt;5</title>
<path fill="none" stroke="black" d="M93.5,-301.63C93.5,-293.82 93.5,-284.73 93.5,-276.18"/>
<polygon fill="black" stroke="black" points="97,-276.16 93.5,-266.16 90,-276.16 97,-276.16"/>
</g>
<!-- 6 -->
<g id="node7" class="node">
<title>6</title>
<polygon fill="#c1ffc1" stroke="transparent" points="161.5,-188 25.5,-188 25.5,-146 161.5,-146 161.5,-188"/>
<polygon fill="none" stroke="black" points="25.5,-146 25.5,-188 69.5,-188 69.5,-146 25.5,-146"/>
<text text-anchor="start" x="35.5" y="-170" font-family="Linux libertine" font-size="10.00">ReLU</text>
<text text-anchor="start" x="30.5" y="-159" font-family="Linux libertine" font-size="10.00">depth:1</text>
<polygon fill="none" stroke="black" points="69.5,-167 69.5,-188 113.5,-188 113.5,-167 69.5,-167"/>
<text text-anchor="start" x="79" y="-175" font-family="Linux libertine" font-size="10.00">input:</text>
<polygon fill="none" stroke="black" points="113.5,-167 113.5,-188 161.5,-188 161.5,-167 113.5,-167"/>
<text text-anchor="start" x="118.5" y="-175" font-family="Linux libertine" font-size="10.00">(4, 256) </text>
<polygon fill="none" stroke="black" points="69.5,-146 69.5,-167 113.5,-167 113.5,-146 69.5,-146"/>
<text text-anchor="start" x="74.5" y="-154" font-family="Linux libertine" font-size="10.00">output: </text>
<polygon fill="none" stroke="black" points="113.5,-146 113.5,-167 161.5,-167 161.5,-146 113.5,-146"/>
<text text-anchor="start" x="118.5" y="-154" font-family="Linux libertine" font-size="10.00">(4, 256) </text>
</g>
<!-- 5&#45;&gt;6 -->
<g id="edge6" class="edge">
<title>5&#45;&gt;6</title>
<path fill="none" stroke="black" d="M93.5,-223.63C93.5,-215.82 93.5,-206.73 93.5,-198.18"/>
<polygon fill="black" stroke="black" points="97,-198.16 93.5,-188.16 90,-198.16 97,-198.16"/>
</g>
<!-- 7 -->
<g id="node8" class="node">
<title>7</title>
<polygon fill="#c1ffc1" stroke="transparent" points="161.5,-110 25.5,-110 25.5,-68 161.5,-68 161.5,-110"/>
<polygon fill="none" stroke="black" points="25.5,-68 25.5,-110 69.5,-110 69.5,-68 25.5,-68"/>
<text text-anchor="start" x="33.5" y="-92" font-family="Linux libertine" font-size="10.00">Linear</text>
<text text-anchor="start" x="30.5" y="-81" font-family="Linux libertine" font-size="10.00">depth:1</text>
<polygon fill="none" stroke="black" points="69.5,-89 69.5,-110 113.5,-110 113.5,-89 69.5,-89"/>
<text text-anchor="start" x="79" y="-97" font-family="Linux libertine" font-size="10.00">input:</text>
<polygon fill="none" stroke="black" points="113.5,-89 113.5,-110 161.5,-110 161.5,-89 113.5,-89"/>
<text text-anchor="start" x="118.5" y="-97" font-family="Linux libertine" font-size="10.00">(4, 256) </text>
<polygon fill="none" stroke="black" points="69.5,-68 69.5,-89 113.5,-89 113.5,-68 69.5,-68"/>
<text text-anchor="start" x="74.5" y="-76" font-family="Linux libertine" font-size="10.00">output: </text>
<polygon fill="none" stroke="black" points="113.5,-68 113.5,-89 161.5,-89 161.5,-68 113.5,-68"/>
<text text-anchor="start" x="123.5" y="-76" font-family="Linux libertine" font-size="10.00">(4, 6) </text>
</g>
<!-- 6&#45;&gt;7 -->
<g id="edge7" class="edge">
<title>6&#45;&gt;7</title>
<path fill="none" stroke="black" d="M93.5,-145.63C93.5,-137.82 93.5,-128.73 93.5,-120.18"/>
<polygon fill="black" stroke="black" points="97,-120.16 93.5,-110.16 90,-120.16 97,-120.16"/>
</g>
<!-- 8 -->
<g id="node9" class="node">
<title>8</title>
<polygon fill="lightyellow" stroke="transparent" points="145,-32 42,-32 42,0 145,0 145,-32"/>
<polygon fill="none" stroke="black" points="42.5,0 42.5,-32 110.5,-32 110.5,0 42.5,0"/>
<text text-anchor="start" x="47.5" y="-19" font-family="Linux libertine" font-size="10.00">output&#45;tensor</text>
<text text-anchor="start" x="59.5" y="-8" font-family="Linux libertine" font-size="10.00">depth:0</text>
<polygon fill="none" stroke="black" points="110.5,0 110.5,-32 145.5,-32 145.5,0 110.5,0"/>
<text text-anchor="start" x="115.5" y="-13.5" font-family="Linux libertine" font-size="10.00">(4, 6)</text>
</g>
<!-- 7&#45;&gt;8 -->
<g id="edge8" class="edge">
<title>7&#45;&gt;8</title>
<path fill="none" stroke="black" d="M93.5,-67.84C93.5,-59.89 93.5,-50.66 93.5,-42.26"/>
<polygon fill="black" stroke="black" points="97,-42.24 93.5,-32.24 90,-42.24 97,-42.24"/>
</g>
</g>
</svg>
